<svg version="1.1" xmlns="http://www.w3.org/2000/svg" xmlns:xlink="http://www.w3.org/1999/xlink" x="0px" y="0px" width="24px" height="24px" viewBox="0 0 24 24" enable-background="new 0 0 24 24" xml:space="preserve">
<g id="Black">
	<g>
		<polygon fill="none" stroke="#e8bb27" stroke-linejoin="round" stroke-miterlimit="10" points="6.5,21 8,22 9.5,21 9.5,19.5 
			8,18.5 6.5,19.5 		" id="id_114"></polygon>
		<polygon fill="none" stroke="#e7b324" stroke-linejoin="round" stroke-miterlimit="10" points="17.5,21 19,22 20.5,21 20.5,19.5 
			19,18.5 17.5,19.5 		" id="id_115"></polygon>
		<polyline fill="none" stroke="#e6b927" stroke-linecap="round" stroke-linejoin="round" stroke-miterlimit="10" points="2.5,12.5 
			2.5,17.5 15.5,17.5 15.5,7.5 11.5,7.5 		" id="id_116"></polyline>
		<polyline fill="none" stroke="#e7b324" stroke-linecap="round" stroke-linejoin="round" stroke-miterlimit="10" points="
			22.5,19.5 23.5,19.5 23.5,17.5 23.5,15.5 20,9.5 15.5,9.5 		" id="id_117"></polyline>
		<polyline fill="none" stroke="#e7b324" stroke-linecap="round" stroke-linejoin="round" stroke-miterlimit="10" points="
			21.167,11.5 17.5,11.5 17.5,14.5 22.864,14.5 		" id="id_118"></polyline>
		
			<line fill="none" stroke="#e7b324" stroke-linecap="round" stroke-linejoin="round" stroke-miterlimit="10" x1="23.5" y1="17.5" x2="15.5" y2="17.5" id="id_119"></line>
		
			<line fill="none" stroke="#e7b324" stroke-linecap="round" stroke-linejoin="round" stroke-miterlimit="10" x1="15.5" y1="19.5" x2="11.5" y2="19.5" id="id_120"></line>
		
			<line fill="none" stroke="#e7b324" stroke-linecap="round" stroke-linejoin="round" stroke-miterlimit="10" x1="4.5" y1="19.5" x2="2.5" y2="19.5" id="id_121"></line>
		<g>
			<polygon fill="none" stroke="#ebbd26" stroke-linecap="round" stroke-linejoin="round" stroke-miterlimit="10" points="9.5,8.75 
				5.5,11 1.5,8.75 1.5,4.25 5.5,2 9.5,4.25 			" id="id_122"></polygon>
			<polyline fill="none" stroke="#58595B" stroke-linecap="round" stroke-linejoin="round" stroke-miterlimit="10" points="5.5,4.5 
				5.5,7.5 7.5,7.5 			" id="id_123"></polyline>
		</g>
	</g>
</g>
<g id="Frames-24px">
	<rect fill="none" width="24" height="24" id="id_124"></rect>
</g>
</svg>