<svg transform="scale(1)" id="_0504_innovation_2" xmlns="http://www.w3.org/2000/svg" xmlns:xlink="http://www.w3.org/1999/xlink" viewBox="0 0 500 500" class="show_show__wrapper__graphic__5Waiy "><title>React</title><defs><style>.cls-1{fill:url(#linear-gradient);}.cls-1,.cls-2,.cls-3,.cls-4,.cls-5,.cls-6,.cls-7,.cls-8,.cls-9,.cls-10,.cls-11,.cls-12,.cls-13,.cls-14,.cls-15,.cls-16,.cls-17{stroke-width:0px;}.cls-2{opacity:.18;}.cls-2,.cls-6{isolation:isolate;}.cls-2,.cls-17{fill:#e7b324;}.cls-3{fill:url(#linear-gradient-11);}.cls-4{fill:url(#linear-gradient-12);}.cls-5{fill:url(#linear-gradient-10);}.cls-6{opacity:.21;}.cls-6,.cls-15{fill:#fff;}.cls-7{fill:url(#linear-gradient-4);}.cls-8{fill:url(#linear-gradient-2);}.cls-9{fill:url(#linear-gradient-3);}.cls-10{fill:url(#linear-gradient-8);}.cls-11{fill:url(#linear-gradient-9);}.cls-12{fill:url(#linear-gradient-7);}.cls-13{fill:url(#linear-gradient-5);}.cls-14{fill:url(#linear-gradient-6);}.cls-16{fill:#ffaa71;}</style><linearGradient id="linear-gradient" x1="212.11" y1="3166.71" x2="479.28" y2="3192.39" gradientTransform="translate(-31 3367.76) scale(1 -1)" gradientUnits="userSpaceOnUse"><stop offset="0" stop-color="#000"></stop><stop offset=".13" stop-color="#000" stop-opacity=".69"></stop><stop offset=".25" stop-color="#000" stop-opacity=".32"></stop><stop offset="1" stop-color="#000" stop-opacity="0"></stop></linearGradient><linearGradient id="linear-gradient-2" x1="410.17" y1="3111.27" x2="-27.91" y2="3127.32" xlink:href="#linear-gradient"></linearGradient><linearGradient id="linear-gradient-3" x1="332.7" y1="3037.23" x2="353.93" y2="3064.86" gradientTransform="translate(-44.8 3361.44) scale(1 -1)" gradientUnits="userSpaceOnUse"><stop offset="0" stop-color="#231f20"></stop><stop offset=".08" stop-color="#231f20" stop-opacity=".69"></stop><stop offset=".21" stop-color="#231f20" stop-opacity=".32"></stop><stop offset="1" stop-color="#231f20" stop-opacity="0"></stop></linearGradient><linearGradient id="linear-gradient-4" x1="359.18" y1="3154.7" x2="308.12" y2="2819.34" xlink:href="#linear-gradient-3"></linearGradient><linearGradient id="linear-gradient-5" x1="319.68" y1="3114.3" x2="315.46" y2="3041.43" xlink:href="#linear-gradient-3"></linearGradient><linearGradient id="linear-gradient-6" x1="398" y1="3074.89" x2="256.95" y2="3167.31" gradientTransform="translate(-44.8 3361.44) scale(1 -1)" xlink:href="#linear-gradient"></linearGradient><linearGradient id="linear-gradient-7" x1="296.41" y1="3115.17" x2="296.34" y2="3089.31" xlink:href="#linear-gradient"></linearGradient><linearGradient id="linear-gradient-8" x1="296.54" y1="3108.87" x2="294.92" y2="3082.56" xlink:href="#linear-gradient"></linearGradient><linearGradient id="linear-gradient-9" x1="296.2" y1="3101.74" x2="295.3" y2="3080.66" xlink:href="#linear-gradient"></linearGradient><linearGradient id="linear-gradient-10" x1="317.42" y1="3028.83" x2="250.18" y2="3040.78" xlink:href="#linear-gradient-3"></linearGradient><linearGradient id="linear-gradient-11" x1="314.67" y1="2982.56" x2="316.37" y2="2985.49" xlink:href="#linear-gradient-3"></linearGradient><linearGradient id="linear-gradient-12" x1="370.65" y1="2928.79" x2="422.73" y2="3018.93" xlink:href="#linear-gradient-3"></linearGradient></defs><g id="backaground"><path class="cls-2" d="M462.63,313.63c-7.57,12.93-12.92,27.03-15.83,41.73-3.8,21.69-15.63,41.16-33.13,54.54-8.9,6.59-18.82,11.66-29.38,15-6.8,2.2-13.75,3.87-20.8,5h-.38c-31.51,5-70.74,3.15-101.24-5.98-18-5.4-32.36-13.25-51.76-15-29.36-2.78-57.86.4-87.07-6.25C-33.93,366.66-7.45,219.14,72.69,171.1c30.16-18.08,66.86-24.33,94.07-45.28,10-7.7,16.05-20.9,24.28-30.38,16.03-18.43,37.51-34.28,60.54-42.51,64.09-22.63,129.72,18.23,177.73,57.36,91.42,74.61,56.51,163.53,33.33,203.34Z"></path></g><g id="arrow"><polygon class="cls-17" points="270.5 268.67 270.5 112.94 254.52 112.94 288.45 73.46 327.11 113.37 309.81 113.37 309.81 305.95 270.5 268.67"></polygon><polygon class="cls-1" points="270.5 268.67 270.5 112.94 254.52 112.94 288.45 73.46 327.11 113.37 309.81 113.37 309.81 305.95 270.5 268.67"></polygon><polygon class="cls-17" points="241.22 272.07 241.22 160.5 225.22 160.5 259.17 121.04 297.8 160.93 280.5 160.93 280.5 273.07 241.22 272.07"></polygon><polygon class="cls-17" points="228.29 328.76 228.29 202.71 216.51 202.71 241.52 173.65 269.95 203.01 257.22 203.01 257.22 285.55 228.29 328.76"></polygon><polygon class="cls-8" points="228.29 328.76 228.29 202.71 216.51 202.71 241.52 173.65 269.95 203.01 257.22 203.01 257.22 285.55 228.29 328.76"></polygon></g><g id="hand"><path class="cls-16" d="M413.65,409.9c-8.9,6.59-18.82,11.66-29.38,15-6.8,2.2-13.75,3.87-20.8,5-5-4.38-10.68-10-14.28-12.78-.4-.3-.75-.58-1.1-.8-10.53-7.13-23.23-11.75-34.71-17.18-5.75-2.73-11.33-5.75-16.98-8.68-6.9-3.78-14.07-7.03-21.45-9.75l-1.25-.43-.95-.33c-4.97-1.29-9.64-3.54-13.75-6.63-4.1-3.58-6.45-8.68-9-13.45-3.93-7.35-5.28-16.98-13.05-20-3.53-1.35-4.7-5.68-5-9.38-.7-10.81-.14-21.66,1.68-32.33,1.38-10.47,2.79-20.95,4.23-31.43.09-1.29.45-2.55,1.05-3.7,1.85-2.48,5.27-3.18,7.95-1.63,2.53,1.62,4.33,4.17,5,7.1,2.7,9.53-1.58,20.38,2.5,29.33v.18c1.22,2.29,2.7,4.44,4.4,6.4,5,6.2,10,12.5,15.48,18.05,2.83,3.37,6.48,5.95,10.6,7.5,4.23,1.54,8.97.07,11.58-3.6h0l.35-.63c1.22-3.61.82-7.57-1.08-10.88-2.99-5.4-6.53-10.47-10.55-15.15-2.27-2.87-4.22-5.97-5.83-9.25-2.43-5.37-3.47-11.27-3.03-17.15-.05-2.71.84-5.36,2.5-7.5,1.9-1.98,5.78-2.7,7.25-.4,8.83,13.4,10.8,24.8,25.3,36.43,3.93,3.13,15.23,15.93,19.45,18.63,12.93,8.28,20,22.85,28.93,35.38,8.93,12.53,19.43,22.88,30.01,33.41,4.58,3.58,17.93,13.43,23.93,20.63Z"></path><path class="cls-9" d="M295.9,314.48c-2.98-5.42-6.52-10.51-10.55-15.2.48-2.05,1.85-2.5,5.3.95,5.65,5.43,13.23,19.45,22.08,20.4-4.88-.53-10.4-.88-14.03,2.5-.69.64-1.27,1.4-1.73,2.23,1.23-3.61.84-7.58-1.08-10.88Z"></path><path class="cls-7" d="M340.81,357.96c-21.38,5.35-31.86,27.28-42.86,8.18-1.05,4.33-15.93-23.63-16.98-19.3,1.65-6.55-15.95,5.68-21.18,1.4-5.23-4.28,2.2-24.85-3.9-21.9-5.22-9.3-6.79-20.21-4.4-30.61l3,2.25c1.22,2.3,2.7,4.46,4.4,6.43,5,6.18,10,12.35,15.48,18.03,2.85,3.35,6.49,5.93,10.6,7.5,4.23,1.46,8.92,0,11.58-3.6.02-.05.02-.1,0-.15-1.08,2.52-1.28,5.33-.58,7.98,1.17,3.75,3.29,7.14,6.15,9.83,10.2,10.14,24.36,15.26,38.68,13.98Z"></path><path class="cls-13" d="M308.08,325.13c-2.62,5.6-7.26,10.01-12.98,12.35,2.72,4.54,5.76,8.89,9.1,13-5.73-3.35-11.12-7.25-16.1-11.63-5-4.53-11.03-10-17.7-8.53-4.55.98-8.65,5.15-13.48,1.28-1.43-1.2-2.49-2.77-3.05-4.55-1.6-5-3.3-9.85-4.63-15-.76-2.22-1.21-4.53-1.33-6.88,0-1.23.93-4.63-1.5-3.45-4.97,2.42-9.39,5.82-13,10,.91-2.76,1.62-5.59,2.13-8.45.27-2.85.86-5.66,1.75-8.38l3.2-9.25c1.02-2.59,1.7-5.31,2.03-8.08.28-3.95-4.3-13.85,1.25-15.98,3.65-1.43,7.2,3.85,8.03,6.7,2.7,9.5-1.58,20.35,2.5,29.31,1.64,2.98,3.6,5.78,5.85,8.33,4.22,5.47,8.74,10.7,13.53,15.68,3.88,4.03,8.25,8.15,14.18,8.55,2.36.22,4.72-.46,6.6-1.9,4.5-3.55,3.48-9.35,1.33-13.85-4.23-8.88-12.25-15.5-16.38-24.43-2.41-5.38-3.45-11.27-3.03-17.15-.06-2.71.83-5.36,2.5-7.5,8.03-8.4,10,9.6,10.5,13.7,1.11,6.57,3.12,12.96,5.98,18.98,1.18,2.8,2.88,6.03,5.9,6.43l-4.68,1.93c1.12,7.56,5.28,14.34,11.5,18.78Z"></path><path class="cls-15" d="M295.8,223.21c-.54,6.86-3.45,13.31-8.23,18.25-4.28,4.23-7.33,9.55-8.83,15.38-.4,1.78-.63,3.63-.95,5.58h-26.28c-.2-1.33-.33-2.68-.58-3.98-1.12-5.62-3.8-10.82-7.73-15-3.49-3.59-6.24-7.84-8.08-12.5-5.89-16.4,2.62-34.47,19.02-40.37,1.75-.63,3.55-1.1,5.38-1.41.83,0,1.68-.23,2.5-.3,17.26-1.41,32.4,11.44,33.81,28.7.15,1.88.14,3.78-.05,5.66Z"></path><path class="cls-14" d="M290.65,223.21c-.54,6.85-3.44,13.3-8.2,18.25-4.3,4.22-7.35,9.54-8.83,15.38-.43,1.78-.63,3.63-.95,5.58h-21.15c-.2-1.33-.33-2.68-.58-3.98-1.12-5.62-3.8-10.82-7.73-15-3.49-3.59-6.24-7.84-8.08-12.5-5.89-16.4,2.62-34.47,19.02-40.37,1.75-.63,3.55-1.1,5.38-1.41.83,0,1.68-.23,2.5-.3,17.27,1.45,30.1,16.62,28.65,33.89-.01.15-.03.31-.04.46Z"></path><path class="cls-17" d="M252.35,262.32h26.05c1.89,0,3.43,1.53,3.43,3.43h0c0,1.89-1.53,3.43-3.43,3.43h-26.05c-1.89,0-3.43-1.53-3.43-3.43h0c0-1.89,1.53-3.43,3.43-3.43Z"></path><rect class="cls-17" x="250.07" y="268.07" width="29.43" height="6.13" rx="3.05" ry="3.05"></rect><rect class="cls-17" x="252.02" y="273.07" width="25.53" height="5.33" rx="2.65" ry="2.65"></rect><path class="cls-12" d="M252.35,262.32h26.05c1.89,0,3.43,1.53,3.43,3.43h0c0,1.89-1.53,3.43-3.43,3.43h-26.05c-1.89,0-3.43-1.53-3.43-3.43h0c0-1.89,1.53-3.43,3.43-3.43Z"></path><rect class="cls-10" x="250.07" y="268.07" width="29.43" height="6.13" rx="3.05" ry="3.05"></rect><rect class="cls-11" x="252.02" y="273.07" width="25.53" height="5.33" rx="2.65" ry="2.65"></rect><path class="cls-17" d="M258.12,262.22c-.2-4.8-.81-9.58-1.83-14.28-.8-3.9-1.38-7.84-1.75-11.8-.4-5.98.78-10.18,3.63-12.8.86-1.08,2.44-1.25,3.52-.39.14.11.27.24.39.39l.25-.3c.49-.61,1.14-1.07,1.88-1.33.76-.2,1.57-.09,2.25.3.48.29.89.67,1.23,1.13.79-.51,1.76-.67,2.68-.45,1.73.43,2.9,2.03,3.4,4.65.8,6.27.32,12.64-1.4,18.73-1.37,5.15-1.96,10.48-1.75,15.8l-1.88.18c-.24-5.52.36-11.04,1.78-16.38,1.33-6.2,2.5-12.08,1.43-17.95-.23-1.08-.75-2.9-2.03-3.2-.46-.11-.95,0-1.33.28.14.32.25.66.33,1,.45,1.87.67,3.8.65,5.73.04.61-.19,1.2-.63,1.63-.39.34-.93.46-1.43.3-.86-.38-1.48-1.15-1.65-2.08-.59-1.75-.7-3.62-.33-5.43.16-.55.41-1.07.75-1.53-.2-.31-.46-.58-.78-.78-.26-.11-.54-.11-.8,0-.37.17-.7.43-.95.75-.14.16-.26.32-.38.5,1.56,2.11,2.25,4.73,1.93,7.33-.18,1.28-.95,2.5-2.3,2.5-.95-.12-1.74-.77-2.05-1.68-1.19-2.53-1.19-5.45,0-7.98h0c-.45-.43-.73-.53-.85-.5-.26.08-.49.23-.68.43-2.38,2.2-3.4,6-3.03,11.3.36,3.89.94,7.75,1.73,11.58,1.03,4.81,1.65,9.71,1.85,14.63l-1.85-.28ZM262.4,226.59c-.6,1.78-.51,3.73.25,5.45.2.45.38.58.43.58.22-.24.34-.55.35-.88.23-1.78-.13-3.59-1.03-5.15ZM267.22,226.79c-.12,1.36.03,2.73.45,4.03h0c-.03-1.35-.18-2.7-.45-4.03Z"></path><path class="cls-16" d="M241.12,294.8s-13.48,29.18-12.13,33.98c1.51,4.05,3.54,7.89,6.03,11.43l12.5,14.28s6.43,17.13,11.35,18.63,11.55,3,11.55,3c0,0-23.55-33.53-25.85-37.36-2.3-3.83,3.4-25.35,5-28.43,1.13-1.82,1.97-3.8,2.5-5.88.25-1.28,11.85-11.7,12.88-16.8,1.03-5.1,1.2-10-1.03-11.45-2.23-1.45-4.65-3.58-4.65-3.58l-15.88,17.23-2.28,4.95Z"></path><path class="cls-5" d="M238.84,323.43c-.42,2.26-.55,4.56-.4,6.85.19,2.12.69,4.2,1.48,6.18,2.07,4.43,4.9,8.46,8.38,11.9,3.1,3.42,6.23,6.75,9.4,10,2.78-9.75-.65-20-3.25-29.83-2.6-9.83-3.28-18.28.28-27.51-3.5-.4-8.25,6.05-10,8.65-2.95,4.09-4.96,8.79-5.88,13.75Z"></path><path class="cls-16" d="M269.02,297s-18.35,10.93-19.3,13.33-7.2,18.7-6.43,26.5c.78,7.8,28.48,40.31,28.48,40.31,0,0,59.29,33.51,70.66,31.91s25.2-20.88,13.43-32.93c-11.78-12.05-38.38-17.13-44.03-17.65s-20.48-6.65-30.21-12.28c-9.73-5.63-19.7-12.03-19.7-12.03,0,0-2.5-12.5-2.5-13.58s11.25-7.68,12.8-13.05.38-9.3-3.2-10.53Z"></path><path class="cls-6" d="M253.92,286.52c.77-.03,1.53-.22,2.23-.58,1.26-.56,2.45-1.25,3.58-2.05,1.68-.86,2.35-2.93,1.48-4.61-.01-.02-.02-.04-.03-.06-.63-2.12-1.47-4.17-2.5-6.13.2.38-2.68,3.58-3.03,4-1.1,1.38-2.28,2.7-3.48,4-1.2,1.3-2,1.65-1.5,3.13.52,1.35,1.8,2.26,3.25,2.3Z"></path><path class="cls-6" d="M261.05,308.23c2.72.69,5.61-.18,7.5-2.25.41-.34.74-.77.98-1.25.16-.42.27-.85.3-1.3.16-1.72-.17-3.46-.95-5-1.05.22-2.04.65-2.93,1.25l-3.55,2.05c-1.28.53-2.49,1.24-3.58,2.1-1.35,1.65.75,3.98,2.23,4.4Z"></path><path class="cls-3" d="M267.45,375.17c1.89,1.9,3.98,3.58,6.25,5l-.95-.33c-1.89-1.41-3.66-2.98-5.3-4.68Z"></path><path class="cls-4" d="M384.29,424.77c-6.8,2.2-13.75,3.87-20.8,5h-.38c-4.85-4.15-10.2-10-13.9-12.83-.4-.3-.75-.58-1.1-.8-10.53-7.13-23.23-11.75-34.71-17.18-5.75-2.73-11.33-5.75-16.98-8.68,13.05,5.23,26.13,10.33,39.48,14.65,4.45,1.45,9.63,2.73,13.55.15,2.19-1.7,3.91-3.93,5-6.48,2.75-5.28,5.2-10.88,8.33-15.9,1.28,1.83-.65,4.63-1.15,6.63-.76,2.99-.99,6.09-.68,9.15.79,7.19,4.45,13.75,10.15,18.2,4,3.1,9,5.05,13.18,8.08Z"></path></g></svg>