<svg transform="scale(1)" id="_0238_like" xmlns="http://www.w3.org/2000/svg" xmlns:xlink="http://www.w3.org/1999/xlink" viewBox="0 0 500 500" class="show_show__wrapper__graphic__5Waiy "><title>React</title><defs><style>.cls-1{fill:url(#linear-gradient);}.cls-1,.cls-2,.cls-3,.cls-4,.cls-5,.cls-6,.cls-7,.cls-8,.cls-9,.cls-10,.cls-11,.cls-12{stroke-width:0px;}.cls-2{fill:url(#linear-gradient-5);opacity:.54;}.cls-2,.cls-8{isolation:isolate;}.cls-3{fill:url(#linear-gradient-4);}.cls-4{fill:url(#linear-gradient-2);}.cls-5{fill:url(#linear-gradient-3);}.cls-6{fill:url(#linear-gradient-7);}.cls-7{fill:url(#linear-gradient-6);}.cls-8{opacity:.24;}.cls-8,.cls-12{fill:#e7b324;}.cls-9{fill:#231f20;}.cls-10{fill:#c14834;}.cls-11{fill:#fff;}</style><linearGradient id="linear-gradient" x1="738.59" y1="1589.69" x2="753.41" y2="1471.82" gradientTransform="translate(-503.89 1752.67) scale(1 -1)" gradientUnits="userSpaceOnUse"><stop offset="0" stop-color="#010101" stop-opacity="0"></stop><stop offset=".95" stop-color="#010101" stop-opacity=".44"></stop></linearGradient><linearGradient id="linear-gradient-2" x1="735.89" y1="1397.06" x2="736.69" y2="1467.95" xlink:href="#linear-gradient"></linearGradient><linearGradient id="linear-gradient-3" x1="686.19" y1="1344.59" x2="714.03" y2="1344.59" xlink:href="#linear-gradient"></linearGradient><linearGradient id="linear-gradient-4" x1="747.64" y1="1341.79" x2="777.12" y2="1341.79" xlink:href="#linear-gradient"></linearGradient><linearGradient id="linear-gradient-5" x1="778.6" y1="1432.72" x2="781.26" y2="1694.54" gradientTransform="translate(-503.89 1752.67) scale(1 -1)" gradientUnits="userSpaceOnUse"><stop offset="0" stop-color="#fff" stop-opacity="0"></stop><stop offset=".15" stop-color="#fff" stop-opacity=".22"></stop><stop offset=".32" stop-color="#fff" stop-opacity=".45"></stop><stop offset=".48" stop-color="#fff" stop-opacity=".65"></stop><stop offset=".64" stop-color="#fff" stop-opacity=".8"></stop><stop offset=".78" stop-color="#fff" stop-opacity=".91"></stop><stop offset=".91" stop-color="#fff" stop-opacity=".98"></stop><stop offset="1" stop-color="#fff"></stop></linearGradient><linearGradient id="linear-gradient-6" x1="696.11" y1="1517.35" x2="709.9" y2="1615.17" gradientTransform="translate(-503.89 1752.67) scale(1 -1)" gradientUnits="userSpaceOnUse"><stop offset="0" stop-color="#231f20" stop-opacity="0"></stop><stop offset="1" stop-color="#231f20"></stop></linearGradient><linearGradient id="linear-gradient-7" x1="772.41" y1="1546.61" x2="765.24" y2="1194.31" xlink:href="#linear-gradient"></linearGradient></defs><g id="background"><path class="cls-8" d="M180.97,74.93c-18.3,13.95-27.73,36.34-43.47,53.05-23.04,24.46-58.33,35.45-79.65,61.33-24.66,29.9-24.77,74.57-7.79,109.3,8.72,17.87,21.85,36.15,17.8,55.55-1.95,9.41-7.83,17.63-10.15,26.96-4.08,16.42,3.83,34.15,16.65,45.35,12.82,11.19,29.8,16.7,46.7,19.42,55.67,8.95,111.95-9.47,168.34-10.45,16.63-.3,33.33.92,49.85-1.01,43.09-5.03,82.3-32.4,103.91-69.53,3.34-5.72,6.39-11.92,6.47-18.52.11-6.73-2.8-13.1-5.53-19.27-8.79-19.85-16.25-40.5-18.69-62.02-2.57-22.6.5-45.5-1.17-68.18-3.04-41.18-25.23-83.67-64.07-98.97-31.57-12.43-69.47-3.2-99.88-18.24-12.78-6.31-17.02-15.97-32.82-17.53-16.33-1.63-33.45,2.78-46.5,12.76Z"></path><path class="cls-8" d="M163.52,391.26c-17.35-.09-38.18,1.74-46.34,16.87,27.36,18.14,62.25,20.28,95.23,20.29,15.18,0,30.45-.32,45.5-2.37,20.56-2.84,40.49-8.91,60.33-14.99l22.46-6.85c2.13-.65,4.64-1.7,4.96-3.89,2.31-15.44-62.32-8.72-72.56-8.45-36.44.93-73.11-.4-109.59-.62Z"></path></g><g id="character"><path class="cls-12" d="M219.42,146.26s-15.07,6.45-16.84,7.89c-1.6,1.31,2.72,90.67,3.04,95.04s24.43,5.1,34.89,3.12c6.96-1.41,13.78-3.47,20.35-6.15,0,0,3.3-92.3,1.25-93.93s-22-7.75-22-7.75l-20.68,1.78Z"></path><path class="cls-12" d="M255.62,151.31s4.6-.3,7.73,1.58c3.13,1.88,32.6,27.31,33.33,34.8.74,7.49-5.19,12.22-7.77,11.71-2.58-.51-10.53-8.22-12.31-10.64-1.78-2.42-17.58-5.65-17.58-5.65l-3.41-31.79Z"></path><path class="cls-1" d="M204.49,197.25c0,1.07.86,1.95,1.94,2.01,9.64,2.04,19.05-3.55,28.7-5.52,4.38-.88,8.99-1.03,13.01-2.96,4.92-2.37,8.22-7.04,11.29-11.52l7.99-11.61c1.27-1.86,2.57-4.28,1.38-6.19-.93-1.48-3.04-1.85-4.73-1.32s-3.03,1.74-4.35,2.9c-6.66,5.77-13.96,10.76-21.78,14.86-3.32,1.83-6.84,3.3-10.48,4.36-6.39,1.74-17.83.28-24.29.55-.03.03.53,10.12,1.33,14.44Z"></path><path class="cls-12" d="M288.75,175.99c1.84.82,3.43,2.09,4.63,3.69,2.09,2.81,5.68,6.89,6.39,10.26.85,3.91-2.68,9.43-6.75,10.13-5.09.76-10.2-1.2-13.43-5.15-3.15-4.01-4.19-9.26-2.8-14.15,1.65-5.94,7.32-6.86,11.95-4.78Z"></path><path class="cls-10" d="M246.89,395.97s-1.81,11.76-.8,13.1c1.01,1.33,6.7.9,10.22.13,3.52-.77,4.38-5.27,4.38-5.27l.24-3.7-14.04-4.25Z"></path><path class="cls-10" d="M198.36,390.48s-3.61,15.96-2.76,17.36c.85,1.4,7.19-2.07,10.75-2.5s3.91-6.11,3.91-6.11l.61-3.66-12.5-5.08Z"></path><path class="cls-10" d="M218.76,137.53s1.33,9.52.27,13.05c-1.05,3.53,3.84,14.08,11.11,14.73,7.26.65,8.38-11.55,8.52-12.99s-1.98-2.37-.93-5.87-17.84-13.17-18.96-8.92Z"></path><path class="cls-10" d="M237.72,146.44c-.8,2.72.26,3.89.74,4.94-1.74,1.43-3.96,2.17-6.22,2.08-4.36-.39-10.58-4.56-12.9-11.28l-.12-.37c-.2-2.41-.46-4.29-.46-4.29,1.12-4.24,20.02,5.4,18.96,8.92Z"></path><path class="cls-11" d="M219.29,149.24s4.62,14.07,9.48,15.94c0,0,1.29.84-2.53,2.67s-13.02-9.84-10.85-17.6c.49-2.01,2-3.62,4-4.26l-.1,3.25Z"></path><path class="cls-11" d="M237.59,147.88s.7,10.1-4,16.57c0,0,1.5,2.71,2.96,2.84,1.45.13,5.87-8.16,5.01-14.74-.51-3.82-3.15-5.62-3.97-4.66Z"></path><path class="cls-9" d="M206.35,249.27l-3,60.32-5.74,83.62s3.3,3.91,12.78,4.03l17.11-85.07,8.04-43.23,6.94,42.14,2.88,87.83s6.72.13,15.44.92l5.66-86.61-5.59-67.06-54.51,3.11Z"></path><path class="cls-4" d="M206.35,249.27l-3,60.32-5.74,83.62s3.3,3.91,12.78,4.03l17.11-85.07,8.04-43.23,6.94,42.14,2.88,87.83s6.72.13,15.44.92l5.66-86.61-5.59-67.06-54.51,3.11Z"></path><path class="cls-10" d="M244.64,118.85s-.25,18.78-2.17,23.67c-1.92,4.88-6.66,8.82-11.03,8.43s-10.57-4.56-12.89-11.27c-2.32-6.71-2.33-22.65-1.41-24.72.93-2.07,5.93-8.48,17.43-6.41,7.93,1.44,10.32,7.43,10.05,10.3Z"></path><path class="cls-9" d="M236.85,103.66c-1.39-1.55-3.07-2.83-4.95-3.76-1.87-.8-3.88-1.23-5.92-1.26-3.91-.18-8.31.75-10.45,3.94-1.39,2.11-1.54,4.73-1.39,7.28.05.34,0,.69-.13,1-.4.74-1.49.59-2.33.58-3.36,0-5.64,3.94-4.89,7.17.99,4.25,5.21,5.1,7.09,8.41.3.54.73,1.14,1.35,1.15.8,0,1.22-.87,1.45-1.58,1.17-3.79.65-7.34,3.4-10.68.18-.26.44-.45.75-.53.94-.1,1.09,1.63,2.03,1.77.86-1.09,2.1-2.32,3.44-1.9.78.38,1.42,1,1.82,1.76,4.53,6.26,13.34,7.7,19.67,3.23.12-.08.24-.17.36-.26,1.06-.72,1.86-1.76,2.26-2.97.44-1.63-.31-3.31-1.09-4.8-.58-1.31-1.39-2.5-2.4-3.53-1.05-1.03-2.55-1.48-4-1.19-.58.27-1.23.4-1.87.36-.42-.16-.79-.43-1.06-.79-1.07-1.1-2.09-2.29-3.16-3.41Z"></path><path class="cls-10" d="M217.49,127.27s-.34-4.37-3.37-3.2c-3.04,1.18-.13,9.4,1.26,10.26.61.45,1.35.73,2.11.79"></path><path class="cls-10" d="M285.71,188.43s-3.84-5.77,4.7-11.78,34.87-22.6,34.87-22.6l1.67,9.59s-25.39,32.27-32.01,31.22c-3.92-.62-7.32-2.99-9.23-6.43Z"></path><path class="cls-10" d="M325.28,154.05c.66-1.14,1.38-2.26,2.15-3.33.49-.67,1.1-1.21,1.6-1.85.74-.96.46-2.85.51-4.05,0-1.34.32-2.66.94-3.85.11-.22.29-.41.52-.52.31-.1.64-.02.87.21.23.22.4.49.51.79.57,1.28.93,2.64,1.04,4.04.07,1.03.38,1.85,1.45,1.43,1.01-.4,2.07-.69,3.14-.87.97-.17,4-.79,4.36.63.67,2.56-3.49,11.92-3.76,12.62s-11.67,4.39-11.67,4.39l-1.66-9.63Z"></path><path class="cls-9" d="M183.54,409.39c-.66.61-1.35,1.37-1.21,2.25s.96,1.39,1.74,1.76c5.43,2.57,11.83,2.14,17.74.94,2.19-.44,4.48-1.06,6.02-2.67.85-.96,1.47-2.1,1.79-3.33.47-1.61.63-3.29.47-4.95.02-.67-.27-1.3-.8-1.72-.35-.16-.73-.24-1.11-.21-3.94-.09-9.63-1.37-13.25.18-4.24,1.89-8.1,4.51-11.39,7.75Z"></path><path class="cls-9" d="M248.56,404.82c-.92-.23-1.89-.22-2.81.04-1.13.53-1.88,1.61-1.97,2.84-.08,1.21.06,2.42.42,3.58.15,1,.55,1.94,1.15,2.76.84.82,1.93,1.36,3.1,1.53,2.21.43,4.45.68,6.7.73l14.14.75c1.05.18,2.13-.02,3.04-.56.99-.95,1.19-2.45.49-3.62-.72-1.12-1.7-2.05-2.87-2.71-2.72-1.78-6.56-4.73-9.84-5.22-1.56-.25-3.5.31-5.1.32-2.16.01-4.31-.13-6.45-.44Z"></path><path class="cls-5" d="M183.54,409.39c-.66.61-1.35,1.37-1.21,2.25s.96,1.39,1.74,1.76c5.43,2.57,11.83,2.14,17.74.94,2.19-.44,4.48-1.06,6.02-2.67.85-.96,1.47-2.1,1.79-3.33.47-1.61.63-3.29.47-4.95.02-.67-.27-1.3-.8-1.72-.35-.16-.73-.24-1.11-.21-3.94-.09-9.63-1.37-13.25.18-4.24,1.89-8.1,4.51-11.39,7.75Z"></path><path class="cls-3" d="M248.56,404.82c-.92-.23-1.89-.22-2.81.04-1.13.53-1.88,1.61-1.97,2.84-.08,1.21.06,2.42.42,3.58.15,1,.55,1.94,1.15,2.76.84.82,1.93,1.36,3.1,1.53,2.21.43,4.45.68,6.7.73l14.14.75c1.05.18,2.13-.02,3.04-.56.99-.95,1.19-2.45.49-3.62-.72-1.12-1.7-2.05-2.87-2.71-2.72-1.78-6.56-4.73-9.84-5.22-1.56-.25-3.5.31-5.1.32-2.16.01-4.31-.13-6.45-.44Z"></path><path class="cls-12" d="M373.88,213.26c-.12-.66.04-1.35.44-1.89,3.84-4.29,5.77-9.93,5.35-15.64-.51-10.3-9.22-18.33-19.66-18.14l-44.65.72c0-.42.02-.84.07-1.25.66-4.27,1.27-8.53,1.97-12.77.99-5.63.76-11.4-.68-16.94-1.98-7.64-5.1-14.84-8.46-21.97-1.71-3.64-4.13-6.4-7.88-8.05-7.52-3.32-14.85-3.46-21.88,1.17-4.5,2.95-7.1,6.83-6.74,12.5.37,6.31.21,12.55.38,18.85.12,1.53-.11,3.07-.68,4.5-.62,1.36-1.6,2.47-2.2,3.87-.55,1.11-1.16,2.19-1.83,3.24-1.23,2.22-2.47,4.43-3.77,6.61-3.83,6.48-7.44,13.1-12.17,19-1.89,2.37-3.92,4.62-5.96,6.89-.55.62-1.18.99-2.11.29-1.99-1.41-4.42-2.1-6.86-1.96-17.49.26-34.98.54-52.46.83-7.02.11-11.9,5.44-11.34,12.36.55,6.31,1.17,12.62,1.77,18.87.52,5.74.99,11.47,1.6,17.18.66,6.87,1.38,13.74,2.06,20.61.48,4.67.86,9.33,1.36,14,.17.68.44,1.33.8,1.93l-.69.11c.35,2.37.27,4.97,1.16,7.16,2.68,6.56,7.85,7.59,13.66,7.03.12,0,.18-.35.27-.54.76.26,1.54.43,2.34.52,13.89-.21,27.8-.4,41.68-.68,4.32.09,8.24-2.46,9.86-6.41.62-1.62,1.12-3.29,1.49-4.98.63.25,1.23.55,1.82.88,1.81,1.04,3.65,2.15,5.34,3.3.36.26.74.48,1.13.67.82.26,1.66.44,2.52.53.97.22,1.97.34,2.96.36,10.95-.11,21.87-.31,32.76-.48,13.42-.22,26.9-.39,40.35-.69l4.32-.1c1.98-.05,3.91-.57,5.65-1.51,3.02-1.75,5.87-3.78,8.51-6.06,6.39-5.52,9.24-12.38,7.14-20.83-.04-.72.18-1.43.62-2.01,1.09-1.58,2.31-3.06,3.36-4.65.26-.38.08-1.03.09-1.54,1.05.58.96-.46,1.12-.88,1.68-4.09,1.6-8.31.66-12.54-.13-.66.02-1.35.42-1.89,5.38-5.59,6.73-12.16,4.96-19.56ZM237.3,213.89l1.07,64.43q.04,2.19-2.22,2.22c-14.29.24-28.58.44-42.87.72-1.6.05-2.08-.41-2.22-1.94-.62-7.36-1.3-14.73-2.04-22.09-.62-6.45-1.34-12.91-1.94-19.36-.54-5.52-.99-11.04-1.5-16.62-.46-5.06-.93-10.12-1.48-15.18-.17-1.44.33-1.75,1.71-1.74,11.82-.15,23.61-.36,35.43-.55,4-.06,7.99-.11,12.03-.1.27-.02.54,0,.8.08.47.18.87.51,1.13.94.88.98,1.44,2.2,1.6,3.5.02.4.09.8.22,1.18.07.32.14.62.22.97.11,1.18.14,2.37.08,3.56h-.02ZM362.56,206.79c-.7.43-1.47.75-2.14,1.2-1.47.98-1.6,1.93-.3,3.1,3.66,3.4,5.37,10.04.24,14.64-1.64,1.42-3.42,2.66-5.33,3.71-1.86,1.06-2.1,2.15-.42,3.42,1.73,1.2,2.87,3.06,3.15,5.14.11.79.34,1.58.51,2.37-.9,5.41-4.47,8.56-9.26,10.71-1.85.79-2.02,1.69-.52,2.96,1.72,1.34,2.94,3.2,3.48,5.29,1.04,4.19-.98,7.1-3.84,9.74-.61.57-1.28,1.04-1.89,1.58-2.69,2.37-5.74,3.23-9.41,3.24-15.72.07-31.45.42-47.2.69-.51,0-1.03.13-1.55.19-.57-.09-1.14-.14-1.72-.16l-8.98.14-4.54.08c-1.34.15-2.7.13-4.04-.06-.26-.05-.53-.05-.8,0-.91.18-1.82.3-2.74.36-.84-.02-1.68-.18-2.46-.48-1.53-.68-2.99-1.48-4.38-2.41-1.33-.79-2.62-1.66-4-2.37-.53-.31-1.13-.48-1.75-.49-1.91,0-3.8,0-5.7.07-1.15.06-1.49-.32-1.51-1.46,0-6.23-.18-12.49-.29-18.71-.22-13.2-.41-26.38-.68-39.58,0-1.54.26-2.49,1.81-3.23,5.94-2.86,10.14-7.61,13.99-12.76,5.04-6.9,9.63-14.11,13.74-21.59l2.61-4.58c2.1-3.75,4.18-7.5,6.24-11.3.37-.77.55-1.62.54-2.47-.01-.34-.07-.68-.18-1-.05-.35-.07-.71-.06-1.07l-.04-2.56c0-1.69-.02-3.39-.06-5.09l-.17-10.21c-.04-1.16-.06-2.32-.08-3.46-.06-.86.31-1.69,1-2.22,4.08-3.55,9.4-2.73,13.18-.12,1.05.73,1.43,2.42,2.06,3.71,2.88,5.92,5.21,12.08,6.98,18.41,1.28,4.73.98,9.47.17,14.2-1.27,7.3-2.56,14.61-3.85,21.92-.18,1-.3,2.03-.44,3.16.33.05.67.07,1.01.07,18.98-.31,37.98-.54,56.97-.94,5.7-.14,9.59,4.86,8.67,10.2-.65,3.71-2.89,6.19-6.02,8.05l-.02-.02Z"></path><path class="cls-2" d="M373.6,211.6c-.12-.66.03-1.35.43-1.89,3.84-4.29,5.77-9.93,5.35-15.64-.5-10.31-9.2-18.37-19.66-18.19l-44.67.73c0-.42.03-.85.08-1.27.66-4.27,1.26-8.51,1.98-12.76.99-5.63.75-11.41-.69-16.95-1.98-7.64-5.11-14.86-8.45-21.99-1.72-3.64-4.12-6.39-7.88-8.03-7.53-3.34-14.85-3.48-21.89,1.16-4.5,2.94-7.08,6.82-6.74,12.5.38,6.26.2,12.54.38,18.84.12,1.53-.1,3.06-.66,4.5-.63,1.36-1.6,2.46-2.21,3.88-.56,1.1-1.17,2.18-1.83,3.23-1.23,2.23-2.47,4.44-3.78,6.62-3.81,6.48-7.42,13.1-12.15,19-1.89,2.37-3.92,4.62-5.96,6.88-.38.64-1.21.85-1.86.48-.09-.05-.18-.12-.26-.19-1.99-1.4-4.41-2.09-6.85-1.96-17.51.26-35.01.52-52.5.79-6.99.12-11.89,5.46-11.31,12.36.54,6.31,1.17,12.62,1.77,18.93.52,5.71.97,11.45,1.55,17.17.66,6.88,1.37,13.73,2.06,20.6.49,4.67.86,9.33,1.37,14,.17.68.44,1.34.8,1.95l-.69.09c.34,2.44.29,4.98,1.17,7.19,2.66,6.53,7.82,7.58,13.64,7.01.11,0,.17-.34.29-.54.75.26,1.53.44,2.32.51,13.89-.2,27.82-.39,41.69-.65,4.32.09,8.24-2.47,9.85-6.42.63-1.62,1.13-3.28,1.49-4.98.63.26,1.24.55,1.83.88,1.81,1.05,3.64,2.15,5.33,3.31.37.24.75.46,1.15.65.82.27,1.66.45,2.52.54.97.23,1.96.35,2.96.37,10.94-.11,21.86-.31,32.81-.48,13.41-.23,26.87-.39,40.34-.71l4.32-.08c1.98-.06,3.91-.59,5.64-1.53,3.01-1.73,5.85-3.74,8.48-6,6.39-5.52,9.25-12.36,7.19-20.82-.04-.72.18-1.44.63-2.01,1.06-1.58,2.29-3.05,3.36-4.67.26-.36.09-1.02.09-1.52,1.05.59.94-.46,1.11-.88,1.53-4.01,1.77-8.39.66-12.54-.13-.66.03-1.35.43-1.89,5.34-5.63,6.68-12.2,4.94-19.58ZM235.86,278.88c-14.29.22-28.56.42-42.87.7-1.6.06-2.09-.43-2.23-1.95-.61-7.36-1.29-14.68-2.04-22.04-.6-6.45-1.34-12.9-1.95-19.34-.51-5.58-.97-11.09-1.49-16.64-.46-5.06-.92-10.13-1.46-15.19-.18-1.41.31-1.72,1.69-1.72,11.83-.17,23.6-.37,35.44-.57,4-.06,7.99-.11,12.03-.09.27-.04.54-.02.8.06.46.2.85.52,1.12.94.9.97,1.47,2.2,1.64,3.5.02.4.09.8.2,1.19.08.34.17.62.22.99.12,1.17.14,2.34.06,3.51l1.09,64.41q0,2.18-2.26,2.24ZM368.28,197.06c-.66,3.73-2.89,6.19-6.02,8.06-.69.43-1.46.73-2.15,1.19-1.46.99-1.6,1.95-.29,3.11,3.64,3.39,5.36,10.04.23,14.63-1.64,1.42-3.43,2.67-5.33,3.73-1.86,1.05-2.09,2.15-.4,3.42,1.72,1.2,2.85,3.06,3.12,5.12.11.79.34,1.62.51,2.37-.89,5.43-4.47,8.57-9.25,10.72-1.86.79-2.03,1.66-.51,2.94,1.71,1.34,2.93,3.19,3.46,5.29,1.04,4.21-.97,7.1-3.84,9.76-.6.57-1.26,1.02-1.86,1.58-2.69,2.37-5.76,3.23-9.43,3.23-15.73.09-31.43.43-47.19.71-.52,0-1.03.13-1.55.17s-1.17-.14-1.72-.14l-9,.14-4.52.09c-1.35.15-2.71.12-4.04-.09-.26-.04-.53-.04-.8,0-.91.18-1.83.3-2.75.37-.83-.02-1.66-.18-2.44-.48-1.53-.67-2.99-1.46-4.39-2.37-1.34-.79-2.64-1.67-4-2.37-.52-.33-1.13-.5-1.74-.48-1.89-.06-3.79-.06-5.7.06-1.15.06-1.49-.34-1.49-1.48,0-6.22-.2-12.47-.28-18.7-.23-13.21-.43-26.4-.69-39.58,0-1.52.26-2.49,1.8-3.25,5.94-2.86,10.15-7.58,13.98-12.76,5.06-6.89,9.65-14.1,13.76-21.58.85-1.53,1.74-3.03,2.6-4.56,2.09-3.76,4.19-7.53,6.25-11.31.36-.77.55-1.61.54-2.46-.01-.35-.07-.69-.18-1.02-.05-.35-.08-.7-.08-1.05v-2.57c0-1.7,0-3.39-.06-5.1l-.18-10.18c-.06-1.16-.06-2.37-.08-3.48-.11-.86.24-1.71.93-2.25,4.07-3.57,9.4-2.75,13.18-.14,1.05.73,1.43,2.43,2.06,3.7,2.89,5.91,5.23,12.06,6.99,18.39,1.29,4.73.97,9.47.17,14.2-1.29,7.3-2.57,14.57-3.87,21.9-.17,1.02-.29,2.04-.43,3.16.33.05.67.08,1.01.08,18.97-.31,37.96-.54,56.96-.93,4.77-.11,8.73,3.61,8.84,8.32.02.64-.04,1.28-.17,1.9Z"></path><path class="cls-11" d="M235.76,281.11c-14.29.23-28.56.43-42.86.71-1.6.06-2.09-.43-2.24-1.96-.6-7.35-1.29-14.68-2.04-22.03-.6-6.45-1.34-12.9-1.95-19.35-.51-5.57-.97-11.08-1.49-16.63-.46-5.06-.92-10.13-1.46-15.19-.17-1.41.32-1.73,1.69-1.73,11.83-.17,23.6-.36,35.44-.56,4-.06,7.99-.12,12.04-.09.27-.05.54-.03.8.06.46.2.85.52,1.12.93.9.98,1.47,2.2,1.64,3.51.02.4.09.8.2,1.19.09.32.17.65.22.99.13,1.17.15,2.34.06,3.51l1.09,64.41q.02,2.15-2.27,2.23Z"></path><path class="cls-7" d="M177.82,219.53c6.49,2.89,13.1,5.49,19.83,7.81,1.69.65,3.46,1.09,5.26,1.29,4.06.29,7.89-1.66,11.47-3.56,1.82-.97,3.93-2.46,3.62-4.48-.35-1.35-1.46-2.39-2.85-2.64-1.36-.23-2.74-.3-4.12-.22-4.95-.08-9.59-2.23-13.94-4.62-4.94-2.72-9.75-5.88-13.34-10.18-.44-.67-1.05-1.21-1.77-1.58-.64-.2-1.33-.22-1.98-.06-9.68,1.79-10.83,14.41-2.18,18.25Z"></path><path class="cls-11" d="M368.6,198.78c-.66,3.73-2.89,6.19-6.02,8.06-.69.42-1.46.73-2.15,1.18-1.46.99-1.6,1.96-.29,3.12,3.64,3.39,5.36,10.04.23,14.63-1.64,1.42-3.43,2.67-5.33,3.73-1.86,1.05-2.09,2.15-.4,3.42,1.72,1.2,2.86,3.06,3.12,5.12.12.79.34,1.58.52,2.37-.89,5.44-4.47,8.58-9.25,10.72-1.86.79-2.04,1.67-.52,2.94,1.71,1.34,2.93,3.2,3.47,5.29,1.03,4.21-.97,7.1-3.84,9.76-.61.57-1.26,1.02-1.87,1.58-2.69,2.37-5.75,3.22-9.42,3.22-15.73.09-31.43.43-47.19.71-.52,0-1.03.14-1.55.17-.57-.08-1.14-.12-1.72-.14-3.01.06-5.99.08-9,.14l-4.53.08c-1.34.16-2.7.13-4.04-.08-.26-.04-.53-.04-.8,0-.91.18-1.83.3-2.76.36-.82-.02-1.63-.18-2.4-.48-1.53-.67-3-1.47-4.39-2.41-1.35-.79-2.64-1.66-4-2.37-.53-.32-1.13-.49-1.75-.48-1.89-.06-3.78-.06-5.7.06-1.15.06-1.49-.34-1.49-1.47,0-6.22-.2-12.47-.29-18.7-.22-13.21-.45-26.4-.69-39.58,0-1.53.26-2.49,1.81-3.25,5.93-2.86,10.15-7.59,13.98-12.76,5.06-6.89,9.65-14.1,13.75-21.58.86-1.52,1.75-3.03,2.61-4.55,2.09-3.76,4.18-7.53,6.24-11.32.37-.77.55-1.61.54-2.46,0-.35-.06-.69-.17-1.02-.06-.34-.09-.69-.09-1.04v-2.58c0-1.7,0-3.39-.06-5.09l-.17-10.18c-.06-1.16-.06-2.37-.09-3.48-.07-.86.31-1.69,1.01-2.21,4.07-3.57,9.4-2.75,13.18-.14,1.06.73,1.44,2.44,2.06,3.71,2.85,5.91,5.16,12.06,6.89,18.37,1.29,4.73.97,9.47.18,14.2-1.29,7.3-2.58,14.56-3.87,21.89-.18,1.02-.29,2.04-.43,3.16.33.05.67.08,1.01.09,18.96-.31,37.96-.54,56.95-.93,4.77-.12,8.73,3.6,8.86,8.31.02.64-.04,1.29-.17,1.92Z"></path><polygon class="cls-10" points="177.72 197.18 203.47 212.02 208.79 223.74 169.47 208.44 177.72 197.18"></polygon><path class="cls-10" d="M203.46,212.02c1.15-.97,2.38-1.84,3.68-2.6,1.2-.54,13.86,4.49,13.92,5.84s-.62,6.22-1.99,6.68-10.28,1.8-10.28,1.8c0,0-8.99-9.11-5.32-11.72Z"></path><path class="cls-12" d="M203.31,153.69s-10.57,3.94-13.41,10.92c-2.84,6.97-26.8,38.83-22.17,44.3,2.34,2.77,7.61,5.02,7.61,5.02l15.44-9.54-3.3-3.16,15.27-21.36s4.4-20.61.56-26.19Z"></path><path class="cls-6" d="M199.92,258.06c6.9.13,13.87.17,20.61-1.31,6.74-1.48,13.3-4.67,17.62-9.99l2.58,3.74c22.56,5.89,45.95,8.08,69.23,6.49,3.29-.16,6.55-.59,9.76-1.29,5.46-1.31,10.49-3.94,15.46-6.51l18.11-9.42c2.72.5,3.76,3.94,3.36,6.6s-1.67,5.32-1.38,8.02c.25,2.32,1.6,4.36,2.19,6.63,1.04,4.04-.61,8.43-3.44,11.53s-6.71,5.08-10.67,6.56c-10.24,3.83-21.36,4.68-32.3,5.14-9.35.39-18.7.51-28.05.65-5.5.07-11.1.13-16.36-1.45-4.79-1.44-9.1-4.2-13.78-6.01-1.38-.64-2.92-.9-4.43-.74-1.11.26-2.16.73-3.08,1.39-5.34,3.35-10.27,7.46-16.12,9.85-8.32,3.41-17.66,3.05-26.66,2.63-7.19-.33-15.65-1.36-19.28-7.53-1.02-1.97-1.74-4.08-2.11-6.26-.87-3.87-7.02-20.51-2.49-22.29,2.17-.84,7.11,2.12,9.43,2.6,3.9.68,7.85,1.01,11.81.99Z"></path></g></svg>