<!DOCTYPE svg PUBLIC "-//W3C//DTD SVG 1.1//EN" "http://www.w3.org/Graphics/SVG/1.1/DTD/svg11.dtd">
<!-- Uploaded to: SVG Repo, www.svgrepo.com, Transformed by: SVG Repo Mixer Tools -->
<svg width="64px" height="64px" viewBox="0 0 24 24" xmlns="http://www.w3.org/2000/svg" fill="#2d3142" transform="matrix(-1, 0, 0, -1, 0, 0)rotate(90)">
<g id="SVGRepo_bgCarrier" stroke-width="0"/>
<g id="SVGRepo_tracerCarrier" stroke-linecap="round" stroke-linejoin="round"/>
<g id="SVGRepo_iconCarrier">
<path d="M20.354 2.646l2.851 2.852-2.82 2.854-.712-.704L21.303 6H16V5h5.293l-1.647-1.646zM.794 5.502l2.852 2.852.707-.707L2.707 6H8V5H2.697l1.63-1.648-.711-.704zM1 12h22v8H1zm1 7h2v-3h1v3h1v-2h1v2h1v-5h1v5h1v-2h1v2h1v-3h1v3h1v-2h1v2h1v-5h1v5h1v-2h1v2h1v-3h1v3h1v-6H2z"/>
<path fill="none" d="M0 0h24v24H0z"/>
</g>
</svg>